<mxfile host="65bd71144e">
    <diagram id="S371QaIal4zXFrFBMhpm" name="Page-1">
        <mxGraphModel dx="1038" dy="591" grid="1" gridSize="10" guides="1" tooltips="1" connect="1" arrows="1" fold="1" page="1" pageScale="1" pageWidth="850" pageHeight="1100" math="0" shadow="0">
            <root>
                <mxCell id="0"/>
                <mxCell id="1" parent="0"/>
                <mxCell id="7" value="Infrastructure as code" style="text;html=1;strokeColor=none;fillColor=none;align=left;verticalAlign=middle;whiteSpace=wrap;rounded=0;fontSize=22;fontColor=#FFFFFF;fontStyle=1;horizontal=1;" parent="1" vertex="1">
                    <mxGeometry x="30" y="40" width="460" height="30" as="geometry"/>
                </mxCell>
                <mxCell id="8" value="Membuat infrastructure seperti dalam AWS dari konfigurasi server, network. dll didalam format tertentu tapi berbasis teks&amp;nbsp;&amp;nbsp;" style="text;html=1;strokeColor=none;fillColor=none;align=left;verticalAlign=middle;whiteSpace=wrap;rounded=0;fontSize=16;fontColor=#FFFFFF;" parent="1" vertex="1">
                    <mxGeometry x="30" y="80" width="710" height="50" as="geometry"/>
                </mxCell>
                <mxCell id="9" value="bayangkan anda membuat server berkali kali di AWS menggunakan mouse? tentu solusinya memakai IaC" style="text;html=1;strokeColor=none;fillColor=none;align=left;verticalAlign=middle;whiteSpace=wrap;rounded=0;fontSize=16;fontColor=#FFFFFF;" parent="1" vertex="1">
                    <mxGeometry x="30" y="140" width="710" height="50" as="geometry"/>
                </mxCell>
                <mxCell id="33" style="edgeStyle=none;html=1;entryX=0;entryY=0.5;entryDx=0;entryDy=0;fontSize=16;fontColor=#FFFFFF;endArrow=none;endFill=0;" parent="1" source="10" target="20" edge="1">
                    <mxGeometry relative="1" as="geometry"/>
                </mxCell>
                <mxCell id="10" value="&lt;span style=&quot;font-size: 18px;&quot;&gt;Terraform&lt;/span&gt;" style="rounded=0;whiteSpace=wrap;html=1;fillColor=#ffe6cc;strokeColor=#d79b00;fontColor=#8c5a5a;" parent="1" vertex="1">
                    <mxGeometry x="49" y="430" width="120" height="60" as="geometry"/>
                </mxCell>
                <mxCell id="13" value="" style="group" parent="1" vertex="1" connectable="0">
                    <mxGeometry x="50" y="220" width="120" height="120" as="geometry"/>
                </mxCell>
                <mxCell id="12" value="" style="rounded=0;whiteSpace=wrap;html=1;fontSize=23;fontColor=#F0EBE4;fillColor=#FFFFFF;" parent="13" vertex="1">
                    <mxGeometry width="120" height="120" as="geometry"/>
                </mxCell>
                <mxCell id="11" value="" style="shape=image;verticalLabelPosition=bottom;labelBackgroundColor=default;verticalAlign=top;aspect=fixed;imageAspect=0;image=data:image/svg+xml,PHN2ZyB4bWxucz0iaHR0cDovL3d3dy53My5vcmcvMjAwMC9zdmciIHZpZXdCb3g9IjE1Ljk1IDE4Ljk1IDMxNC44NiAzMTEuMTEiIHJvbGU9ImltZyI+PHRpdGxlPlRlcnJhZm9ybSBsb2dvPC90aXRsZT48ZyBmaWxsLXJ1bGU9ImV2ZW5vZGQiIGZpbGw9Im5vbmUiPjxnPjxnPjxwYXRoIGQ9Ik0yOS42MTcgMjU3Ljg3OHYtNS41M0gyNC42MXY1LjUwNEgyMnYtMTMuMjI2aDIuNjA5djUuNTU3aDUuMDA4di01LjU1N2gyLjYxdjEzLjI1MmgtMi42MXptMTIuMDI2IDBIMzkuNjFsLS4xODMtLjcwNGE1LjYwOSA1LjYwOSAwIDAgMS0yLjk3NC44MzVjLTEuODI2IDAtMi42MDktMS4yLTIuNjA5LTIuODQ0IDAtMS42NDMuODg3LTIuNjA4IDIuODk2LTIuNjA4aDIuNHYtLjk5MmMwLTEuMDctLjMxMy0xLjQzNS0xLjkwNC0xLjQzNS0uOTI5LjAwNy0xLjg1NS4xMDMtMi43NjUuMjg3bC0uMzEzLTEuODI2YTEzLjUxMyAxMy41MTMgMCAwIDEgMy40OTUtLjQ3YzMuMTMgMCA0LjA0NCAxLjA3IDQuMDQ0IDMuNDQ0bC0uMDUzIDYuMzEzem0tMi42MDgtMy42aC0xLjcyMmMtLjgwOSAwLTEuMDQzLjIwOS0xLjA0My45NCAwIC43My4yMzQuOTY1Ljk5Ljk2NWE0LjA0MyA0LjA0MyAwIDAgMCAxLjg4LS40OTZsLS4xMDUtMS40MDl6bTcuODI2IDMuODA5YTEyLjE4MyAxMi4xODMgMCAwIDEtMy40NDQtLjU0OGwuMzQtMS44MjZjLjk2OS4yNjggMS45NjguNDA4IDIuOTczLjQxNyAxLjA5NiAwIDEuMjc5LS4yMzQgMS4yNzktLjk2NSAwLS43MyAwLS44ODctMS43NDgtMS4yNTItMi40MjYtLjU3NC0yLjYwOS0xLjE0OC0yLjYwOS0zcy44ODctMi43NjUgMy43My0yLjc2NWExMy42IDEzLjYgMCAwIDEgMi45NzUuMzM5bC0uMjM1IDEuOTA0YTE4LjI2IDE4LjI2IDAgMCAwLTIuNzQtLjI4N2MtMS4wOTUgMC0xLjI3OC4yMzUtMS4yNzguODM1czAgLjgzNSAxLjQwOSAxLjE0OGMyLjc5MS43MDQgMy4wNTIgMS4wNyAzLjA1MiAzLjAyNiAwIDEuOTU3LS42NzggMi45NDgtMy42NzggMi45NDhsLS4wMjYuMDI2em0xMS40MjYtLjIwOVYyNTEuMmMwLS41MjItLjIzNS0uNzU3LS44MDktLjc1N2E3LjA5IDcuMDkgMCAwIDAtMi42MDguODF2Ni42MjVoLTIuNjF2LTEzLjQzNWwyLjYxLjM2NnY0LjIyNmE5LjA3OCA5LjA3OCAwIDAgMSAzLjY1Mi0uOTEzYzEuNjQzIDAgMi4yNDMgMS4xMjEgMi4yNDMgMi44MTd2Ni45NGgtMi40Nzh6bTQuNTkxLTEwLjkwNHYtMi4zNDhoMi42MDl2Mi4zNDhoLTIuNjA5em0wIDEwLjkwNHYtOS41NzRoMi42MDl2OS41NzRoLTIuNjA5em00LjQ4Ny05LjQ3YzAtMi40IDEuNDYxLTMuNzgyIDQuODUyLTMuNzgyIDEuMjQ4LjAwMyAyLjQ5MS4xNTIgMy43MDUuNDQ0bC0uMjg3IDIuMTM5YTIwLjg3IDIwLjg3IDAgMCAwLTMuMzQtLjQ3Yy0xLjc3MyAwLTIuMzQ3LjYtMi4zNDcgMS45ODN2NS4wMzVjMCAxLjM4Mi41NzQgMS45ODIgMi4zNDggMS45ODJhMjAuODcgMjAuODcgMCAwIDAgMy4zMzktLjMzOWwuMjg3IDIuMTRjLTEuMjE0LjI5LTIuNDU3LjQ0LTMuNzA1LjQ0My0zLjM5IDAtNC44NTItMS4zODMtNC44NTItMy43ODN2LTUuNzkxem0xNC4wNjEgOS42NzljLTMuNDE3IDAtNC4zMy0xLjgtNC4zMy0zLjc1N3YtMi4zNzNjMC0xLjk1Ny45MTMtMy43NTcgNC4zMy0zLjc1N3M0LjMzIDEuOCA0LjMzIDMuNzU3djIuNDI2YzAgMS44NzgtLjkxMyAzLjY3OC00LjMzIDMuNjc4di4wMjZ6bTAtNy44MjZjLTEuMzMgMC0xLjg1Mi41NzQtMS44NTIgMS42NDN2Mi42MDljMCAxLjA3LjUyMiAxLjY0NCAxLjg1MiAxLjY0NHMxLjg1Mi0uNTc0IDEuODUyLTEuNjQ0di0yLjYwOWMwLTEuMTc0LS41MjEtMS43NDctMS44NTItMS43NDd2LjEwNHptMTEuMzQ4LjE1NmMtLjkwMy4zOTYtMS43NzUuODU4LTIuNjA5IDEuMzgzdjYuMTU3aC0yLjYwOHYtOS42NTNoMi4yN3YxLjA0NGExMS4zMDYgMTEuMzA2IDAgMCAxIDIuNjA4LTEuMjUybC4zMzkgMi4zMjF6bTEwLjA5NiA0LjE0OGEyLjk0OCAyLjk0OCAwIDAgMS0zLjI4NyAzLjM2NSAxNC4yOTYgMTQuMjk2IDAgMCAxLTIuNjEtLjI4N3YzLjkxNGwtMi42MDguMzY1di0xMy42MThoMS45ODNsLjIzNS44MDlhNS4zNzQgNS4zNzQgMCAwIDEgMy4xNTYtLjk5MWMyLjAwOSAwIDMuMDc4IDEuMTQ4IDMuMDc4IDMuMzEzbC4wNTMgMy4xM3ptLTUuOTQ4IDEuMDdjLjcyOS4xNTggMS40NzEuMjQ2IDIuMjE3LjI2Ljg4NyAwIDEuMjUyLS40MTcgMS4yNTItMS4yNzh2LTMuMjM0YzAtLjc4My0uMzEzLTEuMjI2LTEuMjI2LTEuMjI2YTMuNiAzLjYgMCAwIDAtMi4yMTcuODZsLS4wMjYgNC42MTh6bS01OS43MTMgMjIuMjI2SDIydi05LjA3OGg0MC43MjJ2OS4wNzhINDcuNTEzdjQ1LjM5MUgzNy4yMDl6IiBmaWxsLXJ1bGU9Im5vbnplcm8iIGZpbGw9IiMwMDAiLz48cGF0aCBkPSJNNzIuMTEzIDMxNS44N2E0MS43NCA0MS43NCAwIDAgMCAxMi4xODMtMS44NzlsMS41NjUgNy41MTNhNDIuNzU3IDQyLjc1NyAwIDAgMS0xNC42MzUgMi42MDljLTEyLjUyMiAwLTE2Ljg1Mi01LjgxNy0xNi44NTItMTUuMzY1di0xMC40MzVjMC04LjQyNiAzLjc1Ni0xNS42NTIgMTYuNTEzLTE1LjY1MiAxMi43NTYgMCAxNS42NTIgNy40MzUgMTUuNjUyIDE2LjAxN3Y4LjUwNUg2NC4zNjV2Mi4wMzRjMCA0Ljc3NCAxLjY5NiA2LjY1MyA3Ljc0OCA2LjY1M3ptLTcuODI2LTE2Ljc3NGgxMi42Nzh2LTEuOTU3YzAtMy43NTYtMS4xNDgtNi4zNjUtNi4wNTItNi4zNjVzLTYuNjI2IDIuNjA5LTYuNjI2IDYuMzY1djEuOTU3em00OC44ODctNy4zMzFhNzguMDc4IDc4LjA3OCAwIDAgMC0xMC40MzUgNS44MTh2MjUuNjdIOTIuNjQzdi0zOS44MzZoOC40MjdsLjY1MiA0LjQxYTQ0LjYwOSA0NC42MDkgMCAwIDEgMTAuNDM1LTUuMjE4bDEuMDE3IDkuMTU2em0yNC4zNjYgMGE3OC4wNzggNzguMDc4IDAgMCAwLTEwLjQzNiA1LjgxOHYyNS42N0gxMTcuMDF2LTM5LjgzNmg4LjQyNmwuNjUyIDQuNDFhNDQuNjA5IDQ0LjYwOSAwIDAgMSAxMC40MzUtNS4yMThsMS4wMTcgOS4xNTZ6bTMzLjMzOCAzMS40NjFoLTguMTY1bC0uNzMtMi42MDlhMjEuNzgzIDIxLjc4MyAwIDAgMS0xMS44NDQgMy41MjJjLTcuMjc4IDAtMTAuNDM1LTQuOTgyLTEwLjQzNS0xMS44NDMgMC04LjA4NyAzLjUyMi0xMS4xOTIgMTEuNjA5LTExLjE5Mmg5LjU3NHYtNC4xNzRjMC00LjQwOC0xLjIyNi01Ljk3My03LjU5MS01Ljk3My0zLjcxLjA0LTcuNDA3LjQ1LTExLjAzNSAxLjIyNmwtMS4yMjYtNy41OTJhNTEuOTY1IDUxLjk2NSAwIDAgMSAxMy42NDMtMS44NzhjMTIuNTIyIDAgMTYuMiA0LjQwOSAxNi4yIDE0LjR2MjYuMTEzem0tOS45NjUtMTUuMDUyaC03LjM1NmMtMy4yNjEgMC00LjE3NC44ODctNC4xNzQgMy45MTNzLjg4NyA0LjAxNyA0LjAxNyA0LjAxN2ExNS42NTIgMTUuNjUyIDAgMCAwIDcuNTEzLTIuMDM0di01Ljg5NnptNDAuNjQ0LTMzLjgzNGEyOS4yNyAyOS4yNyAwIDAgMC01LjcxNC0uNjUzYy0zLjkxMyAwLTQuNDg2IDEuNzIyLTQuNDg2IDQuNzQ4djQuOTgyaDEwLjEyMWwtLjU3NCA3LjgyNmgtOS41NzR2MzEuODc5aC05Ljk2NXYtMzEuNzc0aC02LjM5MXYtNy44MjZoNi4zNjV2LTUuNjYxYzAtOC4yNyAzLjgzNS0xMi4zNCAxMi42NzgtMTIuMzQgMi45LS4wMTIgNS43ODguMzc0IDguNTgzIDEuMTQ5bC0xLjA0MyA3LjY3em0xOS40NiA0OS43MmMtMTMuNjQzIDAtMTcuMzIxLTcuNTEyLTE3LjMyMS0xNS42NTF2LTEwLjA3YzAtOC4xNjUgMy42NzgtMTUuNjUyIDE3LjMyMS0xNS42NTIgMTMuNjQ0IDAgMTcuMzQ4IDcuNTEzIDE3LjM0OCAxNS42NTJ2MTAuMDdjLS4wMjYgOC4xMTMtMy43MDQgMTUuNjUyLTE3LjM0OCAxNS42NTJ6bTAtMzIuOTQ3Yy01LjIxNyAwLTcuMzU2IDIuMzc0LTcuMzU2IDYuODZ2MTAuNzIzYzAgNC40ODcgMi4wMzUgNi44NiA3LjM1NiA2Ljg2IDUuMzIyIDAgNy4zNTctMi4zNzMgNy4zNTctNi44NnYtMTAuNzIyYzAtNC41MTMtMi4wNjEtNi44ODctNy4zNTctNi44ODd2LjAyNnptNDIuOTkyLjY1MmE3OC4wNzggNzguMDc4IDAgMCAwLTEwLjQzNSA1LjgxOHYyNS42N2gtMTAuMDd2LTM5LjgzNmg4LjQyNmwuNjUzIDQuNDFhNDQuNjA5IDQ0LjYwOSAwIDAgMSAxMC40MzQtNS4yMThsLjk5MiA5LjE1NnptMjcuMzkxIDMxLjQ2MXYtMjcuNzgzYzAtMi4xMTMtLjg4Ny0zLjE4Mi0zLjE4My0zLjE4MmEyNy40OTYgMjcuNDk2IDAgMCAwLTEwLjQzNCAzLjM2NXYyNy42MjZoLTkuOTEzdi0zOS44MzVoNy41OWwuOTkyIDMuMzY2YTM5Ljg4NyAzOS44ODcgMCAwIDEgMTUuOTQtNC4xNzQgNy41NjUgNy41NjUgMCAwIDEgNy41MTIgNC4yNTIgMzkuMTMgMzkuMTMgMCAwIDEgMTYuMDE4LTQuMjUyYzYuNjI2IDAgOSA0LjY3IDkgMTEuNzY1djI4Ljg1MmgtOS45NjV2LTI3Ljc4M2MwLTIuMTEzLS44ODctMy4xODItMy4xODMtMy4xODJhMjYuNCAyNi40IDAgMCAwLTEwLjQzNSAzLjM2NXYyNy42MjZsLTkuOTM5LS4wMjZ6IiBmaWxsLXJ1bGU9Im5vbnplcm8iIGZpbGw9IiMwMDAiLz48cGF0aCBkPSJNMTQ1Ljg2MSA2MC41ODNsNTUuMiAzMS44Nzh2NjMuNzU2bC01NS4yLTMxLjg3OHoiIGZpbGw9IiM1QzRFRTUiLz48cGF0aCBkPSJNMjA3LjExMyA5Mi40NjF2NjMuNzU2bDU1LjIyNi0zMS44NzhWNjAuNTgzeiIgZmlsbD0iIzQwNDBCMiIvPjxwYXRoIGQ9Ik04NC42MDkgMjV2NjMuNzU3bDU1LjIgMzEuODc4VjU2Ljg3OHptNjEuMjUyIDE3MC4wNjFsNTUuMiAzMS44Nzh2LTYzLjczbC01NS4yLTMxLjg3OXoiIGZpbGw9IiM1QzRFRTUiLz48L2c+PC9nPjwvZz48L3N2Zz4=;" parent="13" vertex="1">
                    <mxGeometry x="10" y="15" width="96.22" height="95" as="geometry"/>
                </mxCell>
                <mxCell id="15" value="" style="rounded=0;whiteSpace=wrap;html=1;fontSize=23;fontColor=#F0EBE4;fillColor=#FFFFFF;" parent="1" vertex="1">
                    <mxGeometry x="180" y="220" width="120" height="120" as="geometry"/>
                </mxCell>
                <mxCell id="14" value="" style="shape=image;verticalLabelPosition=bottom;labelBackgroundColor=default;verticalAlign=top;aspect=fixed;imageAspect=0;image=data:image/svg+xml,PHN2ZyB4bWxuczp4bGluaz0iaHR0cDovL3d3dy53My5vcmcvMTk5OS94bGluayIgeG1sbnM9Imh0dHA6Ly93d3cudzMub3JnLzIwMDAvc3ZnIiB4bWw6c3BhY2U9InByZXNlcnZlIiBzdHlsZT0iZW5hYmxlLWJhY2tncm91bmQ6bmV3IDAgMCA0MTczLjcgMjg1MjsiIHZpZXdCb3g9IjAgMCA0MTczLjcgMjg1MiIgeT0iMHB4IiB4PSIwcHgiIGlkPSJrYXRtYW5fMSIgdmVyc2lvbj0iMS4xIj4KPHN0eWxlIHR5cGU9InRleHQvY3NzIj4KCS5zdDB7ZmlsbDojQjdDQTlEO30KCS5zdDF7ZmlsbDojM0M0OTI5O30KCS5zdDJ7ZmlsbDojNzU5QzNFO30KCS5zdDN7ZmlsbDojNEI2MTJDO30KPC9zdHlsZT4KPHBhdGggZD0iTTExOTMuNSwxOTAyLjlsMTcuNCwxOS44bDg4MC42LDI0OS42bDQtMTU0LjdsLTYxNi43LTE1NC44bC0zMC4yLTEwLjlMMTE5My41LDE5MDIuOSIgY2xhc3M9InN0MCIvPgo8cGF0aCBkPSJNMjk4MC4yLDE5MDIuOWwtODk5LjQsMzAwLjJsLTIuNy0xODUuNWw2MTYuNy0xNTQuOGwyNi45LTMwLjNMMjk4MC4yLDE5MDIuOSIgY2xhc3M9InN0MCIvPgo8cGF0aCBkPSJNMjA3OC4xLDg0Mi41bDYxNi43LDE0My43bDI3MS4yLTEyLjlsMTQuMS0yNy4ybC04NTkuMy0zMDkuM0wyMDc4LjEsODQyLjUiIGNsYXNzPSJzdDEiLz4KPHBhdGggZD0iTTE0NzguNywxODYyLjhsLTI4NS4zLDQwLjFsLTcuOS0yOS42di04OTZsNy45LTMxLjJsMjU3LjgsMTkuMmwyNy41LDIwLjlWMTg2Mi44IiBjbGFzcz0ic3QyIi8+CjxwYXRoIGQ9Ik0yMDk1LjUsODQyLjVsLTYxNi43LDE0My43bC0yODUuMy00MC4xbDEwLjgtMTYuOWw4ODcuMy0yNTIuNUwyMDk1LjUsODQyLjUiIGNsYXNzPSJzdDEiLz4KPHBhdGggZD0iTTIwODUuNiwxNzYuMmwtMTAyNC4zLDUxN2wwLjUsMTQ2M0wyMDg1LjYsMjY3M2wxNS4zLTIzLjJWMjA2LjJMMjA4NS42LDE3Ni4yeiBNMTc4Ni4xLDIwODAuOGwtNTkyLjYtMTc3LjkmIzEwOyYjOTtWOTQ2LjJsNTkyLjYtMTc3LjhWMjA4MC44eiBNMjY5NC45LDE4NjIuOGwyODUuMyw0MC4xbDE2LTI4LjNWOTczLjNsLTE2LTI3LjJsLTI4NS4zLDQwLjFWMTg2Mi44IiBjbGFzcz0ic3QzIi8+CjxwYXRoIGQ9Ik0yMDg1LjYsMjY3M2wxMDI2LjItNTE2LjdsMC41LTE0NjNsLTEwMjYuNy01MTdWMjY3M3ogTTIzODcuNSw3NjguNGw1OTIuNiwxNzcuOHY5NTYuOGwtNTkyLjYsMTc3LjlWNzY4LjQmIzEwOyYjOTtMMjM4Ny41LDc2OC40eiIgY2xhc3M9InN0MiIvPgo8L3N2Zz4=;" parent="1" vertex="1">
                    <mxGeometry x="192.4" y="235" width="95.21" height="65" as="geometry"/>
                </mxCell>
                <mxCell id="17" value="AWS &lt;br&gt;Cloudformation" style="text;html=1;strokeColor=none;fillColor=none;align=center;verticalAlign=middle;whiteSpace=wrap;rounded=0;fontSize=13;fontColor=#000000;fontStyle=1" parent="1" vertex="1">
                    <mxGeometry x="169" y="303" width="140" height="30" as="geometry"/>
                </mxCell>
                <mxCell id="19" value="open source" style="text;html=1;strokeColor=none;fillColor=none;align=left;verticalAlign=middle;whiteSpace=wrap;rounded=0;fontSize=16;fontColor=#FFFFFF;" parent="1" vertex="1">
                    <mxGeometry x="58.5" y="380" width="101" height="50" as="geometry"/>
                </mxCell>
                <mxCell id="20" value="&lt;span style=&quot;font-size: 18px;&quot;&gt;AWS &lt;br&gt;Cloudformation&lt;/span&gt;" style="rounded=0;whiteSpace=wrap;html=1;fillColor=#ffe6cc;strokeColor=#d79b00;fontColor=#8c5a5a;" parent="1" vertex="1">
                    <mxGeometry x="630" y="430" width="140" height="60" as="geometry"/>
                </mxCell>
                <mxCell id="22" value="a wise man said : How to accidentally spend your life savings on Cloud Infrastructure on a file." style="text;whiteSpace=wrap;html=1;fontSize=22;fontColor=#FF9A42;fillColor=none;" parent="1" vertex="1">
                    <mxGeometry x="59" y="900" width="560" height="80" as="geometry"/>
                </mxCell>
                <mxCell id="23" value="&lt;font style=&quot;font-size: 16px;&quot;&gt;hati hati dalam menkonfigurasi file IaC nya, jangan sampai terjadi kesalahan fatal :D&lt;/font&gt;" style="text;html=1;strokeColor=none;fillColor=none;align=center;verticalAlign=middle;whiteSpace=wrap;rounded=0;fontSize=14;fontColor=#FFFFFF;" parent="1" vertex="1">
                    <mxGeometry x="59" y="980" width="591" height="50" as="geometry"/>
                </mxCell>
                <mxCell id="26" value="&lt;span style=&quot;font-size: 18px;&quot;&gt;AWS CDK&lt;/span&gt;" style="rounded=0;whiteSpace=wrap;html=1;fillColor=#ffe6cc;strokeColor=#d79b00;fontColor=#8c5a5a;" parent="1" vertex="1">
                    <mxGeometry x="630" y="570" width="140" height="60" as="geometry"/>
                </mxCell>
                <mxCell id="34" style="edgeStyle=none;html=1;entryX=0;entryY=0.5;entryDx=0;entryDy=0;fontSize=16;fontColor=#FFFFFF;endArrow=none;endFill=0;" parent="1" source="28" target="26" edge="1">
                    <mxGeometry relative="1" as="geometry"/>
                </mxCell>
                <mxCell id="28" value="&lt;span style=&quot;font-size: 18px;&quot;&gt;Pulumi&lt;/span&gt;" style="rounded=0;whiteSpace=wrap;html=1;fillColor=#ffe6cc;strokeColor=#d79b00;fontColor=#8c5a5a;" parent="1" vertex="1">
                    <mxGeometry x="49" y="570" width="120" height="60" as="geometry"/>
                </mxCell>
                <mxCell id="30" value="Menggunakan bahasa pemrograman bebas&lt;br&gt;&lt;br&gt;Js,python..." style="text;html=1;strokeColor=none;fillColor=none;align=left;verticalAlign=middle;whiteSpace=wrap;rounded=0;fontSize=16;fontColor=#FFFFFF;" parent="1" vertex="1">
                    <mxGeometry x="325" y="620" width="201" height="70" as="geometry"/>
                </mxCell>
                <mxCell id="31" value="Memiliki bahasa sendiri" style="text;html=1;strokeColor=none;fillColor=none;align=left;verticalAlign=middle;whiteSpace=wrap;rounded=0;fontSize=16;fontColor=#FFFFFF;" parent="1" vertex="1">
                    <mxGeometry x="320" y="400" width="201" height="50" as="geometry"/>
                </mxCell>
                <mxCell id="32" value="paid" style="text;html=1;strokeColor=none;fillColor=none;align=left;verticalAlign=middle;whiteSpace=wrap;rounded=0;fontSize=16;fontColor=#FFFFFF;" parent="1" vertex="1">
                    <mxGeometry x="680" y="360" width="40" height="50" as="geometry"/>
                </mxCell>
                <mxCell id="35" value="&lt;meta charset=&quot;utf-8&quot;&gt;infrastructure provisioning" style="text;whiteSpace=wrap;html=1;fontSize=16;fontColor=#FFFFFF;" parent="1" vertex="1">
                    <mxGeometry x="350" y="220" width="220" height="40" as="geometry"/>
                </mxCell>
            </root>
        </mxGraphModel>
    </diagram>
</mxfile>